<?xml version="1.0" encoding="UTF-8"?>
<svg xmlns="http://www.w3.org/2000/svg" xmlns:xlink="http://www.w3.org/1999/xlink" width="161px" height="60px" viewBox="0 0 160 60" version="1.1">
<defs>
<clipPath id="clip1">
  <path d="M 0.15625 43.898438 L 159.648438 43.898438 L 159.648438 59.816406 L 0.15625 59.816406 Z M 0.15625 43.898438 "/>
</clipPath>
<clipPath id="clip2">
  <path d="M 61.808594 0 L 97.996094 0 L 97.996094 36.382812 L 61.808594 36.382812 Z M 61.808594 0 "/>
</clipPath>
<clipPath id="clip3">
  <path d="M 72.054688 9.847656 L 87.753906 9.847656 L 87.753906 26.535156 L 72.054688 26.535156 Z M 72.054688 9.847656 "/>
</clipPath>
</defs>
<g id="surface1">
<g clip-path="url(#clip1)" clip-rule="nonzero">
<path style=" stroke:none;fill-rule:nonzero;fill:rgb(12.54902%,12.54902%,27.45098%);fill-opacity:1;" d="M 6.742188 59.621094 L 1.988281 59.621094 C 1.261719 59.621094 0.777344 59.570312 0.53125 59.46875 C 0.285156 59.367188 0.160156 59.207031 0.160156 58.988281 L 0.160156 44.945312 C 0.160156 44.246094 2.253906 43.898438 6.4375 43.898438 C 8.84375 43.898438 10.5 44.128906 11.414062 44.597656 C 12.339844 45.078125 12.933594 45.6875 13.195312 46.429688 C 13.339844 46.867188 13.410156 47.378906 13.410156 47.960938 C 13.410156 49.09375 13.21875 49.945312 12.835938 50.515625 C 12.453125 51.082031 12.035156 51.402344 11.585938 51.476562 C 12.265625 51.621094 12.832031 51.957031 13.28125 52.480469 C 13.730469 53.003906 13.953125 53.890625 13.953125 55.144531 C 13.953125 56.597656 13.511719 57.675781 12.628906 58.375 C 11.863281 58.988281 10.6875 59.371094 9.109375 59.53125 C 8.445312 59.589844 7.65625 59.621094 6.742188 59.621094 Z M 6.222656 50.097656 L 6.765625 50.097656 C 7.503906 50.097656 7.871094 49.605469 7.871094 48.613281 C 7.871094 48.121094 7.773438 47.75 7.578125 47.507812 C 7.382812 47.269531 7.164062 47.152344 6.917969 47.152344 L 6.222656 47.152344 Z M 6.222656 53.417969 L 6.222656 56.367188 L 6.765625 56.367188 C 7.503906 56.367188 7.871094 55.871094 7.871094 54.882812 C 7.871094 54.386719 7.773438 54.019531 7.578125 53.777344 C 7.382812 53.539062 7.164062 53.417969 6.917969 53.417969 Z M 22.816406 59.816406 C 21.613281 59.816406 20.582031 59.703125 19.71875 59.476562 C 18.859375 59.25 18.066406 58.847656 17.34375 58.265625 C 15.878906 57.117188 15.148438 54.910156 15.148438 51.648438 C 15.148438 50.28125 15.347656 49.085938 15.742188 48.070312 C 16.144531 47.050781 16.699219 46.242188 17.40625 45.644531 C 18.796875 44.480469 20.601562 43.898438 22.816406 43.898438 C 23.960938 43.898438 24.953125 44 25.800781 44.203125 C 26.648438 44.40625 27.449219 44.777344 28.203125 45.316406 C 29.722656 46.421875 30.484375 48.535156 30.484375 51.648438 C 30.484375 54.445312 29.796875 56.503906 28.417969 57.828125 C 27.042969 59.15625 25.175781 59.816406 22.816406 59.816406 Z M 22.097656 56.070312 C 22.273438 56.28125 22.511719 56.386719 22.816406 56.386719 C 23.121094 56.386719 23.359375 56.28125 23.53125 56.070312 C 23.707031 55.859375 23.851562 55.410156 23.96875 54.714844 C 24.082031 54.027344 24.140625 53.0625 24.140625 51.824219 C 24.140625 50.585938 24.082031 49.632812 23.96875 48.964844 C 23.851562 48.292969 23.707031 47.859375 23.53125 47.652344 C 23.359375 47.449219 23.121094 47.347656 22.816406 47.347656 C 22.511719 47.347656 22.273438 47.449219 22.097656 47.652344 C 21.925781 47.859375 21.78125 48.292969 21.664062 48.964844 C 21.550781 49.632812 21.492188 50.585938 21.492188 51.824219 C 21.492188 53.0625 21.550781 54.027344 21.664062 54.714844 C 21.78125 55.410156 21.925781 55.859375 22.097656 56.070312 Z M 39.238281 59.816406 C 38.035156 59.816406 37.003906 59.703125 36.140625 59.476562 C 35.277344 59.25 34.488281 58.847656 33.761719 58.265625 C 32.300781 57.117188 31.570312 54.910156 31.570312 51.648438 C 31.570312 50.28125 31.769531 49.085938 32.164062 48.070312 C 32.5625 47.050781 33.117188 46.242188 33.828125 45.644531 C 35.21875 44.480469 37.019531 43.898438 39.238281 43.898438 C 40.378906 43.898438 41.375 44 42.222656 44.203125 C 43.070312 44.40625 43.871094 44.777344 44.625 45.316406 C 46.144531 46.421875 46.902344 48.535156 46.902344 51.648438 C 46.902344 54.445312 46.214844 56.503906 44.839844 57.828125 C 43.464844 59.15625 41.597656 59.816406 39.238281 59.816406 Z M 38.519531 56.070312 C 38.695312 56.28125 38.933594 56.386719 39.238281 56.386719 C 39.539062 56.386719 39.78125 56.28125 39.953125 56.070312 C 40.128906 55.859375 40.273438 55.410156 40.386719 54.714844 C 40.503906 54.027344 40.5625 53.0625 40.5625 51.824219 C 40.5625 50.585938 40.503906 49.632812 40.386719 48.964844 C 40.273438 48.292969 40.128906 47.859375 39.953125 47.652344 C 39.78125 47.449219 39.539062 47.347656 39.238281 47.347656 C 38.933594 47.347656 38.695312 47.449219 38.519531 47.652344 C 38.347656 47.859375 38.199219 48.292969 38.085938 48.964844 C 37.96875 49.632812 37.910156 50.585938 37.910156 51.824219 C 37.910156 53.0625 37.96875 54.027344 38.085938 54.714844 C 38.199219 55.410156 38.347656 55.859375 38.519531 56.070312 Z M 54.371094 58.941406 C 54.371094 59.132812 53.925781 59.285156 53.039062 59.402344 C 52.144531 59.519531 51.257812 59.578125 50.375 59.578125 C 49.492188 59.578125 48.925781 59.527344 48.679688 59.421875 C 48.433594 59.320312 48.3125 59.160156 48.3125 58.941406 L 48.3125 45.558594 C 48.3125 45.179688 48.722656 44.84375 49.539062 44.554688 C 50.355469 44.261719 51.300781 44.117188 52.371094 44.117188 C 53.257812 44.117188 53.828125 44.289062 54.089844 44.640625 C 54.277344 44.886719 54.371094 45.113281 54.371094 45.316406 L 54.371094 48.921875 L 54.542969 48.921875 C 54.542969 48.847656 54.761719 48.242188 55.195312 47.109375 C 56.023438 44.96875 56.621094 43.898438 57 43.898438 C 57.707031 43.898438 58.707031 44.109375 59.996094 44.53125 C 60.621094 44.734375 61.15625 45.03125 61.605469 45.417969 C 62.050781 45.800781 62.277344 46.226562 62.277344 46.691406 C 62.277344 46.984375 61.984375 47.546875 61.398438 48.382812 C 60.8125 49.222656 59.925781 50.339844 58.738281 51.738281 C 59.011719 52.027344 59.359375 52.398438 59.78125 52.851562 C 60.199219 53.300781 60.761719 53.976562 61.464844 54.867188 C 62.164062 55.765625 62.515625 56.402344 62.515625 56.78125 C 62.515625 57.160156 62.175781 57.597656 61.496094 58.101562 C 60.816406 58.605469 60.089844 59.011719 59.324219 59.324219 C 58.554688 59.636719 57.984375 59.792969 57.605469 59.792969 C 57.359375 59.792969 57.023438 59.417969 56.597656 58.667969 C 56.171875 57.917969 55.652344 56.796875 55.042969 55.296875 L 54.371094 56.105469 Z M 69.769531 59.097656 C 69.769531 59.257812 69.328125 59.382812 68.445312 59.476562 C 67.5625 59.570312 66.675781 59.621094 65.789062 59.621094 C 64.894531 59.621094 64.324219 59.578125 64.078125 59.496094 C 63.832031 59.417969 63.710938 59.285156 63.710938 59.097656 L 63.710938 45.515625 C 63.710938 45.195312 64.128906 44.875 64.96875 44.5625 C 65.808594 44.25 66.75 44.09375 67.792969 44.09375 C 68.722656 44.09375 69.328125 44.289062 69.617188 44.683594 C 69.71875 44.828125 69.769531 44.976562 69.769531 45.121094 Z M 77.566406 58.988281 C 77.566406 59.175781 77.121094 59.328125 76.230469 59.445312 C 75.339844 59.5625 74.453125 59.621094 73.570312 59.621094 C 72.6875 59.621094 72.125 59.570312 71.878906 59.46875 C 71.632812 59.367188 71.507812 59.207031 71.507812 58.988281 L 71.507812 45.578125 C 71.507812 45.214844 71.921875 44.878906 72.753906 44.574219 C 73.589844 44.269531 74.535156 44.117188 75.589844 44.117188 C 75.96875 44.117188 76.25 44.128906 76.4375 44.160156 C 76.929688 44.234375 77.277344 44.546875 77.480469 45.097656 L 79.566406 50.734375 L 79.652344 50.734375 L 79.652344 45.578125 C 79.652344 45.214844 80.066406 44.878906 80.890625 44.574219 C 81.714844 44.269531 82.65625 44.117188 83.714844 44.117188 C 84.628906 44.117188 85.207031 44.289062 85.453125 44.640625 C 85.625 44.886719 85.714844 45.113281 85.714844 45.316406 L 85.714844 58.988281 C 85.714844 59.175781 85.265625 59.328125 84.375 59.445312 C 83.484375 59.5625 82.507812 59.621094 81.441406 59.621094 C 80.378906 59.621094 79.796875 59.480469 79.695312 59.207031 L 77.675781 53.832031 L 77.566406 53.832031 Z M 92.160156 59.792969 C 91.671875 59.792969 91.214844 59.742188 90.792969 59.640625 C 90.375 59.539062 89.9375 59.324219 89.480469 58.996094 C 89.023438 58.667969 88.636719 58.238281 88.320312 57.699219 C 87.59375 56.476562 87.234375 54.632812 87.234375 52.175781 C 87.234375 50.820312 87.414062 49.625 87.777344 48.59375 C 88.136719 47.558594 88.59375 46.753906 89.144531 46.175781 C 89.695312 45.605469 90.351562 45.136719 91.117188 44.769531 C 91.882812 44.40625 92.601562 44.171875 93.273438 44.058594 C 93.933594 43.953125 94.644531 43.898438 95.398438 43.898438 C 97.136719 43.898438 98.363281 44.046875 99.070312 44.34375 C 99.777344 44.644531 100.132812 45.214844 100.132812 46.058594 C 100.132812 46.730469 100.007812 47.453125 99.761719 48.230469 C 99.519531 49.011719 99.15625 49.402344 98.675781 49.402344 C 98.558594 49.402344 98.066406 49.285156 97.199219 49.058594 C 96.328125 48.835938 95.679688 48.722656 95.242188 48.722656 C 94 48.722656 93.378906 49.777344 93.378906 51.890625 C 93.378906 52.953125 93.523438 53.742188 93.816406 54.257812 C 94.105469 54.773438 94.464844 55.0625 94.902344 55.121094 L 94.902344 53.15625 C 94.902344 52.792969 95.269531 52.457031 96.003906 52.152344 C 96.746094 51.847656 97.453125 51.695312 98.132812 51.695312 C 98.8125 51.695312 99.308594 51.738281 99.621094 51.824219 C 99.933594 51.910156 100.148438 52.035156 100.265625 52.195312 C 100.464844 52.457031 100.566406 52.691406 100.566406 52.894531 L 100.566406 58.941406 C 100.566406 59.132812 100.1875 59.285156 99.425781 59.402344 C 98.664062 59.519531 97.875 59.578125 97.058594 59.578125 C 96.242188 59.578125 95.726562 59.535156 95.507812 59.453125 C 95.292969 59.375 95.167969 59.15625 95.136719 58.789062 L 94.984375 57.503906 L 94.808594 57.503906 C 94.707031 58.128906 94.453125 58.667969 94.039062 59.117188 C 93.628906 59.570312 93.003906 59.792969 92.160156 59.792969 Z M 112.96875 59.453125 C 112.386719 59.59375 111.800781 59.691406 111.199219 59.742188 C 110.597656 59.792969 110.011719 59.816406 109.441406 59.816406 C 108.867188 59.816406 108.425781 59.800781 108.117188 59.773438 C 107.800781 59.742188 107.394531 59.671875 106.886719 59.554688 C 106.378906 59.4375 105.914062 59.277344 105.496094 59.074219 C 105.074219 58.871094 104.632812 58.570312 104.164062 58.179688 C 103.691406 57.785156 103.292969 57.320312 102.976562 56.78125 C 102.238281 55.53125 101.867188 53.914062 101.867188 51.933594 C 101.867188 50.609375 102.074219 49.4375 102.488281 48.417969 C 102.902344 47.398438 103.402344 46.613281 103.988281 46.058594 C 104.574219 45.507812 105.242188 45.0625 105.996094 44.726562 C 107.210938 44.175781 108.433594 43.898438 109.667969 43.898438 C 111.433594 43.898438 112.699219 44.042969 113.46875 44.335938 C 113.816406 44.464844 114.125 44.667969 114.402344 44.945312 C 114.675781 45.222656 114.8125 45.621094 114.8125 46.148438 C 114.8125 46.671875 114.6875 47.332031 114.4375 48.132812 C 114.179688 48.933594 113.816406 49.335938 113.335938 49.335938 C 113.191406 49.335938 112.65625 49.21875 111.730469 48.984375 C 110.804688 48.753906 110.171875 48.636719 109.839844 48.636719 C 109.332031 48.636719 108.902344 48.921875 108.550781 49.488281 C 108.195312 50.054688 108.015625 50.863281 108.015625 51.910156 C 108.015625 52.960938 108.171875 53.773438 108.484375 54.359375 C 108.792969 54.941406 109.203125 55.230469 109.710938 55.230469 C 110.070312 55.230469 110.726562 55.082031 111.675781 54.78125 C 112.625 54.484375 113.175781 54.335938 113.335938 54.335938 C 113.785156 54.335938 114.136719 54.75 114.390625 55.582031 C 114.644531 56.410156 114.769531 57.078125 114.769531 57.589844 C 114.769531 58.097656 114.617188 58.503906 114.304688 58.800781 C 113.992188 59.097656 113.546875 59.316406 112.96875 59.453125 Z M 122.328125 58.507812 C 122.300781 58.929688 122.078125 59.21875 121.664062 59.378906 C 121.253906 59.539062 120.511719 59.621094 119.441406 59.621094 C 118.367188 59.621094 117.476562 59.519531 116.761719 59.324219 C 116.042969 59.128906 115.683594 58.878906 115.683594 58.570312 C 115.683594 58.222656 116.328125 55.992188 117.617188 51.875 C 118.90625 47.765625 119.644531 45.398438 119.832031 44.769531 C 119.902344 44.582031 120.484375 44.425781 121.578125 44.300781 C 122.671875 44.175781 123.847656 44.117188 125.101562 44.117188 C 126.351562 44.117188 127.042969 44.335938 127.171875 44.769531 C 129.910156 53.914062 131.277344 58.558594 131.277344 58.703125 C 131.277344 58.847656 131.191406 58.996094 131.015625 59.140625 C 130.613281 59.460938 129.808594 59.621094 128.605469 59.621094 C 126.042969 59.621094 124.734375 59.3125 124.675781 58.703125 L 124.523438 57.285156 L 122.4375 57.285156 Z M 122.894531 53.132812 L 124.066406 53.132812 L 123.742188 49.203125 L 123.261719 49.203125 Z M 138.445312 54.511719 L 138.445312 58.988281 C 138.445312 59.175781 138.003906 59.328125 137.121094 59.445312 C 136.238281 59.5625 135.347656 59.621094 134.457031 59.621094 C 133.566406 59.621094 132.996094 59.570312 132.742188 59.46875 C 132.488281 59.367188 132.363281 59.207031 132.363281 58.988281 L 132.363281 44.945312 C 132.363281 44.566406 132.835938 44.296875 133.785156 44.136719 C 134.734375 43.976562 135.933594 43.898438 137.382812 43.898438 C 138.828125 43.898438 139.765625 43.902344 140.191406 43.90625 C 140.621094 43.914062 141.125 43.941406 141.703125 43.984375 C 142.28125 44.027344 142.742188 44.101562 143.082031 44.203125 C 143.421875 44.304688 143.796875 44.4375 144.210938 44.597656 C 144.625 44.757812 144.945312 44.964844 145.179688 45.214844 C 145.410156 45.472656 145.632812 45.777344 145.851562 46.125 C 146.242188 46.75 146.4375 47.640625 146.4375 48.796875 C 146.4375 49.957031 146.246094 50.933594 145.859375 51.726562 C 145.476562 52.519531 144.96875 53.121094 144.332031 53.527344 C 145.996094 56.164062 146.828125 57.835938 146.828125 58.550781 C 146.828125 59.261719 145.402344 59.621094 142.550781 59.621094 C 141.726562 59.621094 141.152344 59.582031 140.835938 59.511719 C 140.515625 59.4375 140.3125 59.277344 140.226562 59.03125 L 138.816406 54.53125 Z M 138.445312 47.347656 L 138.445312 51.148438 L 139.011719 51.148438 C 139.851562 51.148438 140.269531 50.492188 140.269531 49.183594 C 140.269531 48.511719 140.15625 48.039062 139.929688 47.761719 C 139.707031 47.484375 139.453125 47.347656 139.160156 47.347656 Z M 158.925781 59.621094 L 149.714844 59.621094 C 149.003906 59.621094 148.527344 59.570312 148.285156 59.46875 C 148.039062 59.367188 147.914062 59.207031 147.914062 58.988281 L 147.914062 45.164062 C 147.914062 44.785156 148.085938 44.515625 148.421875 44.355469 C 148.765625 44.195312 149.375 44.117188 150.257812 44.117188 L 158.992188 44.117188 C 159.296875 44.117188 159.449219 44.621094 159.449219 45.636719 C 159.449219 46.644531 159.382812 47.417969 159.253906 47.945312 C 159.121094 48.480469 158.945312 48.746094 158.726562 48.746094 C 157.785156 48.746094 156.199219 48.652344 153.972656 48.460938 L 153.972656 49.925781 C 156.117188 49.835938 157.515625 49.792969 158.167969 49.792969 C 158.554688 49.792969 158.75 50.253906 158.75 51.167969 C 158.75 52.085938 158.675781 52.78125 158.523438 53.253906 C 158.371094 53.726562 158.164062 53.964844 157.90625 53.964844 L 153.972656 53.878906 L 153.972656 55.273438 C 156.492188 55.085938 158.226562 54.992188 159.183594 54.992188 C 159.492188 54.992188 159.644531 55.5 159.644531 56.519531 C 159.644531 57.539062 159.578125 58.308594 159.449219 58.835938 C 159.316406 59.359375 159.144531 59.621094 158.925781 59.621094 Z M 158.925781 59.621094 "/>
</g>
<g clip-path="url(#clip2)" clip-rule="nonzero">
<path style="fill-rule:nonzero;fill:rgb(99.607843%,38.823529%,23.921569%);fill-opacity:1;stroke-width:1;stroke-linecap:butt;stroke-linejoin:miter;stroke:rgb(100%,100%,100%);stroke-opacity:1;stroke-miterlimit:4;" d="M -0.00149237 44.872135 C -0.00149237 20.089844 20.089514 0.000000000000000958 44.869067 0.000000000000000958 C 69.648621 0.000000000000000958 89.739627 20.089844 89.739627 44.872135 C 89.739627 69.654427 69.648621 89.744271 44.869067 89.744271 C 20.089514 89.744271 -0.00149237 69.654427 -0.00149237 44.872135 Z M 44.869067 86.198437 C 67.701517 86.198437 86.203842 67.698437 86.203842 44.872135 C 86.203842 22.045833 67.69183 3.536198 44.869067 3.536198 C 22.046304 3.536198 3.543979 22.045833 3.543979 44.872135 C 3.543979 67.698437 22.046304 86.198437 44.869067 86.198437 Z M 44.869067 86.198437 " transform="matrix(0.403243,0,0,0.405405,61.809196,-0.000000000000000389)"/>
<path style=" stroke:none;fill-rule:nonzero;fill:rgb(99.607843%,38.823529%,23.921569%);fill-opacity:1;" d="M 97.816406 18.191406 C 97.816406 8.246094 89.796875 0.183594 79.902344 0.183594 C 70.011719 0.183594 61.988281 8.246094 61.988281 18.191406 C 61.988281 28.136719 70.011719 36.199219 79.902344 36.199219 C 89.796875 36.199219 97.816406 28.136719 97.816406 18.191406 Z M 97.816406 18.191406 "/>
</g>
<g clip-path="url(#clip3)" clip-rule="nonzero">
<path style=" stroke:none;fill-rule:nonzero;fill:rgb(100%,100%,100%);fill-opacity:1;" d="M 76.144531 26.535156 L 72.054688 22.433594 L 73.917969 20.554688 L 78.007812 24.65625 Z M 74.828125 20.773438 L 77.804688 23.699219 L 79.386719 22.074219 C 79.386719 22.074219 83.992188 22.210938 84.4375 22.074219 C 84.695312 21.933594 87.648438 18.210938 87.742188 17.792969 C 87.777344 17.578125 87.710938 17.550781 87.609375 17.417969 C 87.507812 17.28125 87.308594 17.175781 87.074219 17.203125 C 86.839844 17.226562 86.71875 17.308594 86.578125 17.390625 C 86.4375 17.472656 83.867188 20.113281 83.644531 20.296875 C 83.429688 20.398438 80.953125 20.316406 80.78125 20.285156 C 80.605469 20.25 80.519531 20.167969 80.476562 19.988281 C 80.433594 19.804688 80.472656 19.507812 80.539062 19.4375 C 80.605469 19.363281 80.574219 19.328125 80.738281 19.246094 C 80.90625 19.167969 83.398438 19.300781 83.617188 19.246094 C 83.839844 19.195312 83.921875 19.132812 84.019531 18.953125 C 84.121094 18.769531 84.113281 18.386719 84.007812 18.226562 C 83.945312 18.097656 83.785156 17.988281 83.617188 17.941406 C 83.453125 17.894531 78.335938 17.835938 77.632812 18.050781 C 76.902344 18.257812 74.828125 20.773438 74.828125 20.773438 Z M 86.207031 12.332031 C 86.21875 13.886719 84.777344 14.433594 83.84375 15.09375 C 82.992188 15.695312 82.265625 16.546875 82.175781 16.890625 C 82.074219 16.539062 81.417969 15.714844 80.5 15.109375 C 79.550781 14.488281 78.125 13.90625 78.136719 12.347656 C 78.15625 9.511719 81.125 8.941406 82.171875 11.386719 C 83.167969 9.039062 86.1875 9.488281 86.207031 12.332031 Z M 86.207031 12.332031 "/>
</g>
</g>
</svg>
